<?xml version="1.0" standalone="no"?>
<!DOCTYPE svg PUBLIC "-//W3C//DTD SVG 20010904//EN"
 "http://www.w3.org/TR/2001/REC-SVG-20010904/DTD/svg10.dtd">
<svg version="1.0" xmlns="http://www.w3.org/2000/svg"
 width="500.000000pt" height="500.000000pt" viewBox="0 0 500.000000 500.000000"
 preserveAspectRatio="xMidYMid meet">
<metadata>
Created by potrace 1.14, written by Peter Selinger 2001-2017
</metadata>
<g transform="translate(0.000000,500.000000) scale(0.100000,-0.100000)"
fill="#000000" stroke="none">
<path d="M2340 3983 c1 -34 28 -129 29 -102 2 44 -11 119 -20 119 -5 0 -9 -8
-9 -17z"/>
<path d="M2698 3994 c-5 -4 -7 -39 -7 -78 l1 -71 10 55 c9 60 7 106 -4 94z"/>
<path d="M2031 3963 c0 -10 9 -40 20 -68 10 -27 17 -39 15 -25 -15 85 -19 101
-27 106 -5 3 -9 -3 -8 -13z"/>
<path d="M2995 3908 c-10 -30 -26 -130 -22 -134 2 -3 12 23 22 58 9 34 19 68
22 75 3 7 0 13 -6 13 -7 0 -13 -6 -16 -12z"/>
<path d="M1630 3794 c0 -9 121 -214 126 -214 3 0 -20 50 -51 110 -31 61 -61
110 -66 110 -5 0 -9 -3 -9 -6z"/>
<path d="M3280 3796 c0 -2 -11 -29 -25 -60 -14 -31 -23 -56 -21 -56 5 0 66
105 66 114 0 3 -4 6 -10 6 -5 0 -10 -2 -10 -4z"/>
<path d="M2671 3658 c2 -78 2 -80 9 -33 12 72 11 115 0 115 -6 0 -9 -33 -9
-82z"/>
<path d="M2390 3688 c1 -32 48 -248 49 -223 0 11 -6 65 -14 120 -8 55 -15 106
-15 113 0 6 -4 12 -10 12 -5 0 -10 -10 -10 -22z"/>
<path d="M2114 3645 c-4 -9 -4 -50 -1 -91 6 -62 4 -74 -8 -74 -9 0 -18 -8 -21
-17 -10 -32 -37 -93 -41 -93 -2 0 -15 7 -28 16 -23 15 -27 15 -49 1 -13 -9
-43 -17 -67 -19 -37 -3 -45 -7 -47 -26 -2 -13 7 -37 22 -56 14 -18 28 -45 32
-60 4 -16 18 -32 33 -39 14 -6 43 -29 63 -50 l37 -40 -21 -30 c-21 -30 -22
-30 -30 -8 -4 12 -13 19 -18 16 -18 -11 -38 13 -33 39 3 13 0 27 -6 30 -7 5
-11 -2 -11 -18 0 -32 -10 -33 -38 -3 -22 23 -72 35 -72 17 0 -16 31 -25 39
-11 5 8 13 6 26 -9 16 -17 16 -20 2 -26 -8 -3 -24 -1 -36 5 -11 6 -27 11 -35
11 -8 0 -32 11 -52 25 -43 29 -79 32 -93 8 -8 -15 -13 -15 -36 -5 -36 16 -55
1 -55 -43 0 -18 -7 -38 -15 -45 -24 -20 -19 -66 11 -89 14 -11 30 -21 36 -23
7 -3 3 -13 -10 -26 -38 -38 -22 -86 33 -100 18 -5 35 -19 43 -35 13 -27 32
-37 32 -17 0 18 28 11 33 -9 4 -17 -2 -18 -79 -17 -46 1 -86 5 -89 8 -10 9
-36 -2 -30 -13 3 -4 11 -6 18 -3 9 3 12 -6 10 -33 -2 -25 31 -164 95 -398 97
-353 100 -360 126 -363 15 -2 26 -10 26 -19 0 -9 6 -13 14 -10 8 3 158 11 335
18 250 9 392 9 642 0 177 -7 327 -15 335 -18 8 -3 14 1 14 11 0 11 9 16 33 16
l32 0 90 351 c49 193 93 353 97 355 4 3 8 24 8 46 0 28 8 51 25 74 31 41 32
72 3 83 -14 5 -17 10 -10 15 19 12 14 55 -8 68 -11 7 -20 18 -20 24 0 19 -28
24 -41 8 -12 -14 -14 -14 -26 2 -9 13 -16 14 -26 6 -8 -7 -17 -9 -21 -5 -3 4
-6 -2 -5 -13 1 -10 1 -28 0 -39 -1 -17 -3 -18 -11 -5 -8 13 -10 13 -10 -1 0
-9 -7 -22 -15 -29 -12 -10 -15 -10 -15 3 0 9 5 19 10 22 6 3 10 17 10 30 0 12
6 25 14 28 18 7 27 110 14 162 -9 32 -7 48 7 80 10 22 17 44 16 49 -1 5 3 23
9 40 9 26 8 33 -7 43 -38 28 -59 16 -81 -44 -12 -32 -23 -67 -26 -78 -4 -12
-24 -38 -45 -58 -25 -23 -46 -56 -56 -87 -16 -47 -18 -50 -52 -50 -35 0 -35 1
-29 33 l6 32 -15 -25 c-14 -25 -14 -25 -15 -2 0 12 -6 22 -15 22 -8 0 -73 73
-146 163 -72 89 -141 166 -154 171 -35 14 -75 -16 -75 -55 0 -23 17 -52 70
-116 l70 -85 -25 -20 c-25 -19 -25 -19 -51 1 -15 12 -33 21 -40 21 -17 0 -18
21 -2 55 10 22 9 28 -3 36 -24 16 -53 6 -59 -21 -5 -18 -12 -24 -26 -21 -10 2
-67 6 -126 8 -60 2 -108 7 -108 10 0 3 18 28 40 55 46 58 52 98 18 122 -34 24
-57 19 -91 -19 -17 -19 -34 -35 -37 -35 -18 0 -34 95 -34 200 l-1 115 -38 3
c-27 2 -39 -1 -43 -13z m56 -55 c0 -38 -4 -50 -15 -50 -8 0 -15 8 -15 17 0 17
21 83 27 83 2 0 3 -22 3 -50z m0 -119 c0 -22 9 -67 19 -100 l19 -61 -30 -37
c-41 -52 -41 -52 -36 -16 2 18 1 30 -4 27 -4 -3 -8 -20 -8 -38 0 -28 -28 -77
-65 -114 -12 -13 14 112 41 195 19 56 34 120 34 142 0 30 4 41 15 41 11 0 15
-11 15 -39z m-81 -107 c-7 -17 -13 -24 -16 -16 -3 7 1 27 8 45 9 20 15 26 17
16 1 -8 -2 -29 -9 -45z m-54 -29 c18 -24 24 -42 20 -53 -7 -14 -9 -13 -15 8
-7 23 -8 22 -10 -10 -2 -28 -4 -30 -7 -10 -3 14 -9 30 -15 35 -8 7 -9 5 -5 -7
9 -26 -2 -22 -13 5 -7 17 -8 14 -5 -18 2 -22 4 -41 4 -42 1 -2 2 -6 3 -10 2
-5 14 -18 27 -29 21 -18 24 -25 15 -45 l-11 -24 -17 33 c-9 18 -24 32 -35 32
-22 0 -36 15 -46 50 -4 14 -18 38 -31 53 -29 34 -22 51 16 44 16 -4 35 0 46 8
30 23 50 18 79 -20z m1245 -60 c0 -8 -7 -15 -15 -15 -8 0 -15 7 -15 15 0 8 7
15 15 15 8 0 15 -7 15 -15z m-20 -54 c0 -4 -5 -22 -11 -40 -9 -24 -8 -43 1
-76 10 -34 10 -51 0 -80 -12 -36 -14 -37 -49 -31 -20 3 -37 10 -39 16 -2 5 -9
7 -14 4 -8 -5 -9 4 -5 27 l6 34 -14 -30 c-9 -18 -14 -23 -15 -13 0 20 31 88
40 88 16 0 59 54 65 81 6 25 35 43 35 20z m-800 -41 c0 -6 -37 -10 -91 -10
-57 0 -88 4 -84 10 3 6 44 10 91 10 49 0 84 -4 84 -10z m-10 -36 c0 -3 -5 -14
-10 -25 -9 -17 -22 -19 -105 -19 -52 0 -95 3 -95 7 0 3 7 15 17 25 13 15 32
18 105 18 48 0 88 -3 88 -6z m50 -35 c0 -5 -9 -9 -20 -9 -22 0 -23 1 -14 24 5
13 9 14 20 5 8 -6 14 -15 14 -20z m-766 8 c17 -12 17 -18 6 -51 -7 -21 -9 -53
-5 -72 l6 -35 -26 17 c-14 9 -43 39 -65 67 -22 27 -40 47 -40 43 0 -18 37 -74
77 -118 25 -26 41 -48 35 -48 -6 0 -17 -3 -26 -6 -8 -3 -22 3 -33 16 -10 12
-33 28 -51 35 -41 18 -49 40 -28 75 9 16 16 40 16 54 0 24 2 25 20 16 22 -12
60 -5 60 11 0 13 33 11 54 -4z m1016 -12 c0 -17 -43 -38 -48 -23 -5 12 18 38
34 38 8 0 14 -7 14 -15z m60 -47 c0 -12 -24 -10 -37 3 -6 6 -9 18 -6 26 5 11
9 11 24 -3 11 -9 19 -21 19 -26z m-610 -48 c0 -44 -4 -80 -8 -80 -4 0 -23 13
-42 28 l-34 29 40 51 c21 28 40 51 42 52 1 0 2 -36 2 -80z m-366 57 c10 -8 20
-27 21 -44 1 -16 10 -46 20 -66 17 -36 17 -36 -11 -71 -15 -19 -32 -32 -36
-30 -16 10 -49 85 -57 131 -15 78 15 115 63 80z m676 -61 c0 -69 -1 -74 -20
-69 -11 3 -20 13 -21 22 0 12 -2 12 -8 -3 -13 -35 -23 1 -16 57 9 64 11 67 41
67 23 0 24 -2 24 -74z m-570 40 c14 -16 20 -31 16 -42 -6 -16 -8 -16 -21 2
-14 18 -15 17 -12 -16 3 -47 -20 -46 -45 2 -16 31 -17 40 -6 57 17 28 39 26
68 -3z m480 -68 c0 -86 -2 -94 -26 -119 -20 -21 -28 -42 -32 -79 l-5 -50 -73
0 -74 0 13 26 12 27 6 -24 c5 -17 7 -11 8 24 1 26 -6 64 -14 84 -9 22 -15 67
-15 119 l0 84 100 0 100 0 0 -92z m440 11 c0 -4 -8 -9 -18 -11 -16 -5 -17 -2
-8 18 10 20 25 16 26 -7z m207 -15 c-3 -3 -12 -4 -19 -1 -8 3 -5 6 6 6 11 1
17 -2 13 -5z m-534 -39 c-3 -9 -8 -14 -10 -11 -3 3 -2 9 2 15 9 16 15 13 8 -4z
m869 -86 c-29 -44 -46 -52 -32 -13 6 14 10 42 9 62 -1 39 -3 37 -14 -13 -6
-29 -7 -29 -21 -11 -9 14 -14 15 -14 6 0 -12 -3 -11 -15 1 -22 22 -9 49 23 46
14 -1 27 4 29 10 3 7 16 -1 33 -18 l28 -30 -26 -40z m-1218 47 c39 -37 48 -85
23 -121 -13 -16 -14 -15 -9 13 2 16 -1 38 -7 49 -9 15 -10 11 -11 -22 0 -40
-22 -85 -40 -85 -5 0 -8 21 -5 48 2 26 2 38 -1 27 -9 -36 -27 -65 -40 -65 -8
0 -22 17 -33 38 -21 39 -28 31 -11 -12 11 -30 3 -34 -16 -8 -7 9 -14 35 -14
56 0 33 6 45 40 78 51 47 78 48 124 4z m703 13 c58 -28 116 -99 111 -136 l-4
-28 -11 26 c-15 36 -70 79 -99 79 -19 0 -24 5 -24 25 0 21 -5 25 -29 25 -23 0
-32 -6 -39 -27 -6 -16 -11 -22 -11 -15 -1 22 32 72 48 72 8 0 34 -9 58 -21z
m-1167 -9 c34 0 41 -4 63 -42 23 -40 24 -44 9 -61 -17 -20 -32 -17 -107 18
-27 13 -58 26 -68 29 -27 9 -18 49 13 57 14 4 31 5 38 3 8 -2 31 -4 52 -4z
m1420 -28 c0 -5 13 -7 30 -4 29 4 30 4 19 -28 -6 -17 -14 -28 -18 -23 -3 4
-17 20 -30 36 -14 15 -19 27 -13 27 7 0 12 -4 12 -8z m-380 -6 c0 -3 -4 -8
-10 -11 -5 -3 -10 -1 -10 4 0 6 5 11 10 11 6 0 10 -2 10 -4z m61 -49 c-13 -13
-15 11 -4 40 7 16 8 15 11 -6 2 -13 -1 -28 -7 -34z m489 27 c6 -14 10 -45 10
-70 0 -42 -1 -44 -30 -44 -35 0 -36 4 -10 48 13 21 16 32 8 30 -20 -7 -38 23
-27 44 14 26 38 22 49 -8z m-61 -18 c8 -10 9 -25 3 -48 l-9 -33 -11 35 c-10
35 -10 35 -11 6 -1 -16 -4 -27 -7 -23 -9 8 5 77 15 77 5 0 14 -6 20 -14z
m-1239 -28 c0 -23 -3 -29 -11 -21 -6 6 -8 20 -4 32 9 30 15 26 15 -11z m1433
16 c13 -13 -54 -84 -78 -84 -19 0 -22 4 -18 23 10 40 75 81 96 61z"/>
<path d="M2102 3245 c0 -16 2 -22 5 -12 2 9 2 23 0 30 -3 6 -5 -1 -5 -18z"/>
<path d="M2492 2995 c0 -16 2 -22 5 -12 2 9 2 23 0 30 -3 6 -5 -1 -5 -18z"/>
<path d="M2271 2944 c0 -11 3 -14 6 -6 3 7 2 16 -1 19 -3 4 -6 -2 -5 -13z"/>
<path d="M2267 2796 c-7 -47 -4 -66 9 -54 3 3 4 28 2 54 l-3 49 -8 -49z"/>
<path d="M2302 2770 c0 -19 2 -27 5 -17 2 9 2 25 0 35 -3 9 -5 1 -5 -18z"/>
<path d="M2925 3628 c-9 -25 -55 -241 -52 -245 2 -1 18 49 36 113 18 64 35
123 38 130 3 8 0 14 -6 14 -7 0 -14 -6 -16 -12z"/>
<path d="M2661 3534 c0 -11 3 -14 6 -6 3 7 2 16 -1 19 -3 4 -6 -2 -5 -13z"/>
<path d="M1290 3522 c0 -4 55 -61 122 -127 116 -114 103 -96 -44 63 -66 70
-78 80 -78 64z"/>
<path d="M3614 3508 c-51 -60 -55 -70 -14 -33 25 21 47 42 48 47 7 17 -15 7
-34 -14z"/>
<path d="M3455 3343 c-87 -99 -91 -111 -12 -33 43 41 77 78 77 82 0 18 -18 5
-65 -49z"/>
<path d="M1705 3240 c3 -5 11 -10 16 -10 6 0 7 5 4 10 -3 6 -11 10 -16 10 -6
0 -7 -4 -4 -10z"/>
<path d="M3150 3229 c0 -5 5 -7 10 -4 6 3 10 8 10 11 0 2 -4 4 -10 4 -5 0 -10
-5 -10 -11z"/>
<path d="M1780 3215 c7 -8 16 -12 21 -9 13 8 1 24 -18 24 -13 0 -13 -3 -3 -15z"/>
<path d="M3100 3220 c0 -5 5 -10 10 -10 6 0 10 5 10 10 0 6 -4 10 -10 10 -5 0
-10 -4 -10 -10z"/>
<path d="M1698 3203 c7 -3 16 -2 19 1 4 3 -2 6 -13 5 -11 0 -14 -3 -6 -6z"/>
<path d="M1837 3180 c-6 -24 -1 -29 23 -23 20 5 17 28 -5 37 -7 2 -15 -4 -18
-14z"/>
<path d="M3120 3190 c0 -5 5 -10 10 -10 6 0 10 5 10 10 0 6 -4 10 -10 10 -5 0
-10 -4 -10 -10z"/>
<path d="M3047 3183 c-4 -3 -7 -13 -7 -21 0 -12 3 -12 15 -2 8 7 15 16 15 21
0 11 -14 12 -23 2z"/>
<path d="M1758 3168 c9 -9 15 -9 24 0 9 9 7 12 -12 12 -19 0 -21 -3 -12 -12z"/>
<path d="M1020 3165 c0 -2 23 -16 50 -30 60 -30 64 -27 12 9 -35 24 -62 33
-62 21z"/>
<path d="M3843 3139 c-24 -17 -43 -32 -43 -35 0 -6 70 31 95 50 38 30 -8 16
-52 -15z"/>
<path d="M3070 3140 c0 -5 4 -10 9 -10 6 0 13 5 16 10 3 6 -1 10 -9 10 -9 0
-16 -4 -16 -10z"/>
<path d="M3000 3109 c0 -11 5 -17 10 -14 6 3 10 13 10 21 0 8 -4 14 -10 14 -5
0 -10 -9 -10 -21z"/>
<path d="M3036 3099 c3 -5 0 -9 -7 -9 -10 0 -10 -3 -2 -11 13 -13 43 -5 43 10
0 5 -9 11 -20 14 -11 3 -18 1 -14 -4z"/>
<path d="M3415 3100 c-3 -5 -1 -10 4 -10 6 0 11 5 11 10 0 6 -2 10 -4 10 -3 0
-8 -4 -11 -10z"/>
<path d="M3367 3093 c-4 -3 -7 -11 -7 -17 0 -6 5 -5 12 2 6 6 9 14 7 17 -3 3
-9 2 -12 -2z"/>
<path d="M1200 3061 c0 -5 46 -35 103 -67 56 -31 112 -64 125 -72 12 -8 22
-12 22 -9 0 5 -236 157 -245 157 -3 0 -5 -4 -5 -9z"/>
<path d="M3650 3024 c-83 -55 -83 -61 -2 -18 39 21 72 42 72 46 0 14 -15 8
-70 -28z"/>
<path d="M3305 3039 c-4 -6 -5 -13 -2 -16 7 -7 27 6 27 18 0 12 -17 12 -25 -2z"/>
<path d="M3020 3030 c0 -5 7 -10 15 -10 8 0 15 5 15 10 0 6 -7 10 -15 10 -8 0
-15 -4 -15 -10z"/>
<path d="M3335 3010 c-3 -5 1 -10 9 -10 9 0 16 5 16 10 0 6 -4 10 -9 10 -6 0
-13 -4 -16 -10z"/>
<path d="M1530 2780 c0 -5 7 -10 15 -10 8 0 15 5 15 10 0 6 -7 10 -15 10 -8 0
-15 -4 -15 -10z"/>
<path d="M1609 2776 c9 -11 9 -15 -1 -19 -7 -3 -8 -6 -3 -6 6 0 16 3 24 8 16
11 6 31 -16 31 -12 0 -13 -3 -4 -14z"/>
<path d="M1468 2763 c7 -3 16 -2 19 1 4 3 -2 6 -13 5 -11 0 -14 -3 -6 -6z"/>
<path d="M860 2751 c0 -5 8 -12 18 -15 33 -9 194 -46 200 -45 8 0 -199 68
-210 69 -5 0 -8 -4 -8 -9z"/>
<path d="M3980 2730 c-47 -15 -82 -28 -78 -29 19 -3 188 42 188 50 0 13 -15
10 -110 -21z"/>
<path d="M1648 2743 c7 -3 16 -2 19 1 4 3 -2 6 -13 5 -11 0 -14 -3 -6 -6z"/>
<path d="M1425 2730 c-3 -5 -2 -10 4 -10 5 0 13 5 16 10 3 6 2 10 -4 10 -5 0
-13 -4 -16 -10z"/>
<path d="M1475 2730 c-3 -5 -2 -10 4 -10 5 0 13 5 16 10 3 6 2 10 -4 10 -5 0
-13 -4 -16 -10z"/>
<path d="M3680 2650 c-47 -16 -82 -29 -78 -29 20 -3 188 42 188 50 0 13 -15
10 -110 -21z"/>
<path d="M1220 2651 c0 -5 8 -12 18 -15 33 -9 194 -46 200 -45 8 0 -199 68
-210 69 -5 0 -8 -4 -8 -9z"/>
<path d="M800 2309 c0 -5 82 -9 183 -8 100 0 178 2 172 4 -24 8 -355 12 -355
4z"/>
<path d="M1353 2308 c-2 -5 35 -7 84 -7 90 2 83 6 -20 11 -33 2 -61 0 -64 -4z"/>
<path d="M3555 2310 l-80 -6 88 -2 c57 -1 86 2 82 8 -3 6 -7 9 -8 8 -1 -1 -38
-5 -82 -8z"/>
<path d="M3940 2309 c-91 -4 -81 -5 78 -7 118 -1 182 2 182 8 0 11 -52 10
-260 -1z"/>
</g>
</svg>
